<!DOCTYPE svg PUBLIC "-//W3C//DTD SVG 20010904//EN" "http://www.w3.org/TR/2001/REC-SVG-20010904/DTD/svg10.dtd">
<svg version="1.0" xmlns="http://www.w3.org/2000/svg" width="1070px" height="892px" viewBox="0 0 10700 8920" preserveAspectRatio="xMidYMid meet">
<g id="layer101" fill="#171717" stroke="none">
 <path d="M4604 5840 c19 -52 134 -363 255 -690 122 -327 221 -598 221 -602 0 -4 -108 -9 -239 -10 l-240 -3 320 -690 c176 -379 323 -693 328 -698 4 -4 149 -6 323 -5 l316 3 -154 409 c-85 224 -154 412 -154 417 0 5 110 10 243 11 l244 3 -738 964 c-405 530 -742 968 -749 975 -6 6 5 -32 24 -84z"/>
 <path d="M8373 5402 l-342 -347 0 -930 0 -930 385 -359 386 -358 41 40 c23 22 200 189 392 371 193 183 351 335 353 339 1 4 -92 101 -206 215 l-208 208 -269 -232 -270 -232 -6 284 c-3 156 -7 538 -8 849 l-1 566 44 43 45 44 198 -178 c109 -98 208 -187 219 -197 21 -19 22 -19 150 98 71 65 152 139 179 165 28 26 62 57 78 69 15 12 27 25 27 30 0 5 -125 125 -277 267 -412 383 -563 523 -565 523 -2 0 -157 -156 -345 -348z"/>
 <path d="M1345 5504 c-137 -129 -251 -238 -253 -242 -1 -4 44 -54 101 -110 l104 -102 6 -587 c4 -322 7 -726 7 -898 l0 -311 93 -90 c97 -93 169 -162 432 -409 88 -82 188 -176 222 -209 l62 -58 65 58 c36 33 205 190 375 349 l309 290 1 937 1 936 105 87 105 86 -242 249 c-205 212 -244 248 -257 237 -14 -11 -204 -187 -415 -385 l-79 -74 -241 241 c-133 133 -243 241 -246 240 -3 0 -117 -106 -255 -235z m954 -626 l1 -188 -200 0 -200 0 0 170 0 171 96 115 97 115 102 -98 103 -98 1 -187z m3 -1075 c-4 -291 -4 -298 -25 -318 -12 -11 -65 -58 -117 -105 -52 -47 -117 -106 -145 -131 -65 -60 -111 -99 -119 -99 -3 0 -6 214 -6 475 l0 475 208 0 207 0 -3 -297z"/>
 <path d="M3427 5400 l-367 -341 0 -933 0 -932 323 -300 c177 -165 350 -326 384 -358 l62 -57 396 376 c217 207 395 378 395 379 0 0 -94 95 -208 209 l-209 209 -268 -231 c-148 -127 -272 -231 -277 -231 -4 0 -8 384 -8 853 l1 852 44 38 44 37 217 -195 217 -196 26 24 c14 13 108 99 209 192 l183 168 -298 291 c-164 160 -343 334 -399 388 l-100 98 -367 -340z"/>
 <path d="M6266 5510 c-113 -116 -206 -214 -205 -218 0 -4 52 -52 114 -107 l114 -100 0 -967 1 -967 -111 -115 -110 -115 202 -206 202 -205 376 0 376 0 313 291 312 291 0 1027 0 1028 -311 286 -311 287 -378 0 -377 0 -207 -210z m809 -509 c105 -91 193 -170 197 -176 4 -5 8 -321 8 -701 l0 -692 -197 -184 c-109 -101 -204 -187 -210 -192 -10 -6 -13 209 -13 1059 0 850 3 1065 13 1059 6 -4 98 -82 202 -173z"/>
 </g>

</svg>