<!DOCTYPE svg PUBLIC "-//W3C//DTD SVG 20010904//EN" "http://www.w3.org/TR/2001/REC-SVG-20010904/DTD/svg10.dtd">
<svg version="1.0" xmlns="http://www.w3.org/2000/svg" width="200px" height="200px" viewBox="0 0 2000 2000" preserveAspectRatio="xMidYMid meet">
<g id="layer101" fill="#232323" stroke="none">
 <path d="M870 1743 c-64 -11 -171 -48 -233 -80 -75 -40 -114 -81 -155 -163 -26 -53 -27 -62 -27 -205 1 -134 4 -160 28 -240 63 -207 145 -298 307 -341 91 -24 265 -24 345 0 183 55 302 157 373 317 80 184 63 362 -51 523 -67 92 -159 155 -269 181 -59 14 -256 19 -318 8z m302 -44 c160 -34 287 -168 334 -351 13 -51 14 -74 4 -142 -6 -45 -17 -90 -24 -101 -7 -11 -23 -51 -37 -89 -72 -207 -356 -330 -622 -270 -172 39 -241 111 -296 310 -69 248 -57 398 40 509 42 47 165 107 264 128 84 18 264 21 337 6z"/>
 <path d="M945 1571 c-50 -12 -90 -38 -119 -75 -25 -34 -48 -44 -128 -61 -35 -7 -60 -34 -77 -82 -32 -89 -29 -85 -52 -73 -18 10 -20 9 -17 -7 2 -11 19 -23 42 -31 45 -15 52 -11 35 16 -11 17 -10 28 6 64 27 64 57 88 112 88 43 0 50 4 97 53 28 30 66 62 85 72 43 22 109 16 147 -14 17 -14 41 -21 68 -21 51 0 55 -3 100 -70 20 -30 48 -70 61 -89 18 -24 25 -47 25 -77 0 -24 5 -64 12 -89 10 -39 10 -48 -2 -55 -25 -16 -3 -22 34 -10 37 12 46 24 23 33 -16 6 -44 102 -49 162 -3 36 0 41 27 54 17 8 33 19 37 25 12 18 9 111 -4 124 -23 23 -63 13 -98 -23 l-33 -34 -37 41 c-33 38 -41 42 -86 43 -27 1 -62 8 -79 17 -39 20 -92 28 -130 19z m451 -107 c9 -34 -9 -71 -41 -86 -35 -16 -43 -3 -16 26 32 34 23 53 -11 27 -50 -40 -55 -12 -5 30 41 36 65 37 73 3z"/>
 <path d="M763 1068 l-32 -31 -12 26 c-7 15 -18 27 -26 27 -17 0 -16 -4 3 -42 15 -29 15 -34 0 -59 -20 -33 -20 -39 -1 -39 8 0 19 9 26 21 11 21 11 20 39 -12 38 -46 50 -29 15 21 l-27 39 31 27 c29 24 42 54 23 54 -4 0 -22 -14 -39 -32z"/>
 <path d="M1087 1034 c-4 -4 2 -19 13 -34 26 -36 25 -42 -5 -70 -14 -13 -25 -27 -25 -32 0 -15 27 -8 45 12 23 26 29 25 45 -5 7 -14 19 -25 27 -25 19 0 16 13 -8 44 l-21 27 38 34 c35 31 37 34 17 35 -13 0 -28 -9 -35 -20 -18 -28 -34 -25 -48 10 -12 28 -29 38 -43 24z"/>
 <path d="M436 603 c15 -30 17 -313 3 -330 -11 -12 -6 -14 32 -11 l44 3 20 87 c11 48 23 90 28 94 4 4 7 -28 7 -71 0 -59 -4 -83 -17 -97 -15 -17 -14 -18 22 -18 36 0 37 1 22 18 -14 16 -17 44 -17 180 l0 162 -23 0 c-22 0 -26 -10 -58 -142 l-34 -143 -3 124 c-2 76 1 128 8 135 17 17 11 26 -16 26 -21 0 -25 -3 -18 -17z"/>
 <path d="M635 440 l0 -180 35 0 35 0 -3 180 -3 180 -32 0 -32 0 0 -180z"/>
 <path d="M750 440 l0 -180 60 0 c75 0 100 20 100 80 0 43 -17 90 -33 90 -6 0 0 11 12 24 18 19 22 36 22 80 0 60 14 81 28 44 9 -21 10 -21 10 -2 1 26 -17 44 -43 44 -41 0 -50 -16 -55 -96 -4 -49 -11 -79 -18 -82 -10 -3 -13 19 -13 87 l0 91 -35 0 -35 0 0 -180z m98 -87 c-2 -50 -7 -78 -15 -81 -10 -3 -13 17 -13 77 0 66 3 81 15 81 13 0 15 -13 13 -77z"/>
 <path d="M986 612 c-3 -5 -14 -78 -26 -163 -12 -85 -23 -162 -26 -171 -4 -15 1 -18 29 -18 l34 0 13 96 c7 53 16 90 20 83 11 -22 31 -159 25 -170 -4 -5 1 -9 10 -9 11 0 15 6 11 18 -3 9 -15 78 -26 152 -29 185 -30 190 -45 190 -8 0 -16 -4 -19 -8z"/>
 <path d="M1073 598 c3 -13 16 -89 28 -170 24 -158 29 -174 51 -166 10 4 20 48 32 147 10 78 22 157 26 177 l8 35 -36 -3 c-21 -2 -38 -9 -38 -15 -1 -7 -2 -22 -3 -33 -1 -14 -8 -20 -26 -20 -22 0 -25 4 -25 35 0 19 -5 35 -11 35 -6 0 -9 -10 -6 -22z m63 -90 c-3 -13 -6 -36 -6 -52 0 -42 -16 -21 -25 32 -6 39 -5 42 15 42 18 0 21 -4 16 -22z"/>
 <path d="M1238 608 c14 -19 22 -324 9 -337 -8 -8 1 -11 30 -11 l41 0 17 78 c25 113 34 120 35 27 0 -50 -5 -86 -12 -93 -9 -9 -4 -12 22 -12 26 0 31 3 22 12 -8 8 -12 63 -12 180 l0 168 -24 0 c-27 0 -26 4 -56 -130 -26 -119 -31 -133 -37 -126 -11 11 -4 228 8 242 9 12 6 14 -21 14 -25 0 -30 -3 -22 -12z"/>
 <path d="M1410 598 c5 -13 18 -81 30 -153 29 -187 29 -185 51 -185 10 0 19 2 19 4 0 2 11 81 25 176 14 95 25 174 25 176 0 2 -16 4 -35 4 -28 0 -35 -4 -35 -19 0 -35 -12 -51 -37 -51 -23 0 -25 3 -21 35 3 28 1 35 -14 35 -14 0 -16 -4 -8 -22z m66 -90 c-3 -13 -6 -36 -6 -52 0 -42 -16 -21 -25 32 -6 39 -5 42 15 42 18 0 21 -4 16 -22z"/>
 </g>

</svg>